<svg width="14" height="10" viewBox="0 0 14 10" fill="none" xmlns="http://www.w3.org/2000/svg">
<path d="M13 5.66667C13.3682 5.66667 13.6667 5.36819 13.6667 5C13.6667 4.63181 13.3682 4.33333 13 4.33333L13 5.66667ZM0.528592 4.52859C0.268243 4.78894 0.268243 5.21105 0.528592 5.4714L4.77123 9.71404C5.03158 9.97439 5.45369 9.97439 5.71404 9.71404C5.97439 9.45369 5.97439 9.03158 5.71404 8.77123L1.94281 5L5.71404 1.22876C5.97439 0.968415 5.97439 0.546305 5.71404 0.285956C5.45369 0.0256064 5.03158 0.0256064 4.77123 0.285956L0.528592 4.52859ZM13 4.33333L0.999996 4.33333L0.999996 5.66667L13 5.66667L13 4.33333Z" fill="#00E694"/>
</svg>
