<svg width="14" height="10" viewBox="0 0 14 10" fill="none" xmlns="http://www.w3.org/2000/svg">
<path d="M1 4.33333C0.63181 4.33333 0.333334 4.63181 0.333334 5C0.333333 5.36819 0.63181 5.66667 1 5.66667L1 4.33333ZM13.4714 5.47141C13.7317 5.21106 13.7317 4.78895 13.4714 4.5286L9.22876 0.285958C8.96841 0.0256085 8.5463 0.0256084 8.28595 0.285958C8.0256 0.546307 8.0256 0.968417 8.28595 1.22877L12.0572 5L8.28595 8.77124C8.0256 9.03159 8.0256 9.4537 8.28595 9.71404C8.5463 9.97439 8.96841 9.97439 9.22876 9.71405L13.4714 5.47141ZM1 5.66667L13 5.66667L13 4.33334L1 4.33333L1 5.66667Z" fill="#231F20"/>
</svg>
